<svg width="24" height="28" viewBox="0 0 24 28" fill="none" xmlns="http://www.w3.org/2000/svg">
<path d="M5.05938 4.61853C5.05884 4.61853 5.05824 4.61853 5.0577 4.61853C4.86854 4.61853 4.69063 4.70367 4.55628 4.8584C4.42046 5.01483 4.34564 5.22313 4.34564 5.44488V17.8359C4.34564 18.2903 4.66706 18.6608 5.06221 18.662C6.72807 18.6666 9.51906 19.0675 11.4445 21.3939V8.42637C11.4445 8.27235 11.4104 8.12765 11.3461 8.00791C9.76579 5.06949 6.72902 4.62304 5.05938 4.61853Z" fill=""/>
<path d="M19.6544 17.8359V5.44482C19.6544 5.22307 19.5796 5.01477 19.4438 4.85833C19.3094 4.70361 19.1314 4.61847 18.9424 4.61847C18.9418 4.61847 18.9412 4.61847 18.9407 4.61847C17.2711 4.62306 14.2343 5.06951 12.654 8.00792C12.5897 8.12766 12.5557 8.27236 12.5557 8.42639V21.3938C14.4811 19.0674 17.272 18.6665 18.9379 18.6619C19.333 18.6608 19.6544 18.2902 19.6544 17.8359Z" fill=""/>
<path d="M21.2845 7.47607H20.7655V17.8359C20.7655 18.996 19.9469 19.942 18.9405 19.9449C17.5275 19.9488 15.1977 20.2678 13.5477 22.071C16.4014 21.2642 19.4098 21.7886 21.1243 22.2398C21.3383 22.296 21.5595 22.2379 21.7311 22.08C21.902 21.9226 22 21.6872 22 21.4346V8.30227C22.0001 7.84672 21.679 7.47607 21.2845 7.47607Z" fill=""/>
<path d="M3.23448 17.8359V7.47607H2.71556C2.32108 7.47607 2 7.84672 2 8.30227V21.4344C2 21.6871 2.09805 21.9224 2.26896 22.0798C2.44034 22.2376 2.66135 22.296 2.87576 22.2395C4.59024 21.7883 7.59867 21.264 10.4523 22.0707C8.80231 20.2677 6.47247 19.9487 5.05947 19.9448C4.05321 19.942 3.23448 18.996 3.23448 17.8359Z" fill=""/>
</svg>
