<svg width="24" height="29" viewBox="0 0 24 29" fill="none" xmlns="http://www.w3.org/2000/svg">
<path d="M15.09 5.79172L6.92174 10.6203L3.67499 8.77584L11.6992 4.20094C11.8792 4.09529 12.0952 4.09529 12.2842 4.20094L15.09 5.79172Z" fill=""/>
<path d="M20.316 8.7758L12.0045 13.53L8.89202 11.7591L8.44202 11.4949L16.6193 6.66718L17.0693 6.93043L20.316 8.7758Z" fill=""/>
<path d="M11.3385 14.8999L11.3295 24.9044L3.369 20.1078C3.144 19.971 3 19.6965 3 19.4012V10.1458L6.3735 12.0647V15.4385C6.3735 15.8706 6.6795 16.2292 7.0485 16.2292C7.4175 16.2292 7.7235 15.8706 7.7235 15.4385V12.845L8.1735 13.0978L11.3385 14.8999Z" fill=""/>
<path d="M20.991 10.1562L12.6885 14.8896L12.6795 24.8941L21 19.8775L20.991 10.1562Z" fill=""/>
</svg>
